<svg width="28" height="28" viewBox="0 0 28 28" fill="none" xmlns="http://www.w3.org/2000/svg">
<path d="M0 13.6484C0.00759673 13.6181 0.0151935 13.5877 0.0151935 13.5497C0.083564 11.4464 0.592544 9.46466 1.54973 7.59676C2.15747 6.40465 2.93234 5.31884 3.85914 4.35451C5.55321 2.59292 7.55115 1.34006 9.87574 0.61872C10.643 0.383334 11.4255 0.216287 12.2155 0.109984C12.9828 0.0112737 13.7577 -0.0190986 14.5325 0.0112737C15.9075 0.0644252 17.2446 0.32259 18.5436 0.778175C19.5236 1.11986 20.4504 1.56785 21.3316 2.10696C21.8026 2.3955 21.9697 2.92702 21.7418 3.39019C21.4835 3.90652 20.853 4.09635 20.3592 3.79263C19.6527 3.35982 18.9082 2.98776 18.1334 2.70682C17.3509 2.41828 16.5457 2.21327 15.7176 2.09178C15.0035 1.98547 14.2818 1.93992 13.5602 1.97029C11.9952 2.03103 10.4987 2.38031 9.07049 3.01813C7.75626 3.6028 6.58636 4.40007 5.5608 5.40236C4.05665 6.86782 3.0159 8.61423 2.42336 10.634C2.23344 11.2946 2.0967 11.9628 2.02073 12.6462C1.95236 13.2384 1.92197 13.8231 1.95236 14.4153C2.05871 16.9438 2.84118 19.2369 4.36812 21.2491C5.98622 23.3828 8.08292 24.8103 10.6582 25.562C11.2811 25.7442 11.9117 25.8657 12.5574 25.9416C13.1347 26.01 13.7121 26.0403 14.2894 26.0252C16.257 25.9644 18.103 25.4785 19.8275 24.5141C21.9241 23.3448 23.5195 21.6895 24.6514 19.5862C25.2515 18.47 25.6541 17.2855 25.8668 16.0403C25.958 15.5239 26.0112 15 26.034 14.4761C26.1175 12.4335 25.6921 10.4973 24.7729 8.66738C24.5906 8.30291 24.3779 7.94604 24.1728 7.59676C23.8309 7.02728 24.1348 6.29075 24.7881 6.13889C25.1907 6.04777 25.6086 6.21482 25.8365 6.57929C26.391 7.45249 26.8392 8.37885 27.1887 9.35835C27.4925 10.2164 27.7129 11.0896 27.8496 11.9932C27.9863 12.8739 28.0243 13.7623 27.9863 14.6507C27.9104 16.2756 27.5685 17.8398 26.9456 19.3357C26.2695 20.9758 25.3123 22.426 24.0816 23.7017C22.5243 25.319 20.6935 26.4959 18.574 27.2325C17.7384 27.521 16.8799 27.7336 15.9987 27.8627C15.4289 27.9462 14.8516 28.007 14.2742 27.9994C13.7729 27.9918 13.2715 27.9994 12.7777 27.9538C11.076 27.8095 9.45033 27.3615 7.91579 26.6174C6.4952 25.9265 5.22655 25.0305 4.10983 23.9143C2.36258 22.1679 1.1699 20.095 0.516577 17.7183C0.334256 17.0653 0.197515 16.3971 0.129144 15.7214C0.0759673 15.2885 0.0531771 14.8785 0.0151935 14.4609C0.0151935 14.4305 0 14.4002 0 14.3774C0 14.1344 0 13.8914 0 13.6484Z" fill="#175B04"/>
<path d="M12.0096 16.9676C12.2072 16.7322 12.3895 16.512 12.5794 16.2842C13.6429 15.0086 14.7065 13.7329 15.7776 12.4573C16.7728 11.2652 17.7756 10.0655 18.7707 8.87337C19.8343 7.59773 20.8978 6.32969 21.9613 5.05405C22.2272 4.74274 22.4855 4.42383 22.7514 4.11251C23.116 3.6873 23.8149 3.64933 24.2024 4.04417C24.5594 4.41623 24.5822 5.0009 24.248 5.39574C23.154 6.70175 22.0677 8.00776 20.9814 9.31377C20.0242 10.4527 19.0746 11.5993 18.1174 12.7382C16.7804 14.3404 15.4358 15.9501 14.0987 17.5523C13.6961 18.0382 13.2935 18.5166 12.8909 19.0025C12.587 19.367 12.1388 19.5037 11.7362 19.3442C11.607 19.2911 11.4855 19.2151 11.3867 19.1164C9.86736 17.6054 8.34802 16.0868 6.83627 14.5682C6.56279 14.2948 6.47922 13.9607 6.58558 13.5963C6.69193 13.2394 6.93503 13.004 7.29967 12.9205C7.65672 12.837 7.97578 12.9357 8.23407 13.1938C9.3128 14.272 10.3991 15.3579 11.4779 16.4361C11.6298 16.5879 11.7817 16.7398 11.9337 16.8917C11.9489 16.9144 11.9717 16.9372 12.0096 16.9676Z" fill="#175B04"/>
</svg>
