<svg width="29" height="28" viewBox="0 0 29 28" fill="none" xmlns="http://www.w3.org/2000/svg">
<path d="M27.8501 16.1325C27.9338 15.6083 27.987 15.0841 28.0022 14.5447C28.0326 13.7698 28.0022 12.9949 27.9034 12.2276C27.7969 11.4299 27.6373 10.6474 27.3941 9.88764C26.6644 7.5629 25.4179 5.55723 23.6545 3.87066C22.6816 2.9438 21.6022 2.16888 20.4089 1.56111C19.74 1.21923 19.0636 0.938138 18.3643 0.710222C18.3415 0.702625 18.3187 0.695028 18.3035 0.68743C18.2731 0.679833 18.2427 0.672236 18.2123 0.657042C17.0189 0.277182 15.8028 0.056863 14.5487 0.0112798C13.7734 -0.019109 12.9981 0.0112798 12.2304 0.110043C11.4323 0.216404 10.6494 0.375945 9.88935 0.619056C9.59292 0.710222 9.30408 0.816583 9.01525 0.922944C7.16065 1.62189 5.51886 2.6779 4.0899 4.09857C2.97258 5.21536 2.06808 6.48409 1.384 7.90477C0.639118 9.447 0.19067 11.0652 0.0462539 12.767C0.000648834 13.2608 0.00824226 13.7698 0.000641415 14.2636C-0.00695943 14.841 0.053851 15.4184 0.13746 15.9882C0.266675 16.8695 0.471901 17.7279 0.768334 18.5636C0.91275 18.9739 1.07236 19.3689 1.24718 19.7564C1.93126 21.2986 2.88897 22.6813 4.11271 23.9121C5.23003 25.0289 6.49937 25.9329 7.92073 26.6167C9.4637 27.3612 11.0827 27.8094 12.7853 27.9538C13.2793 27.9994 13.7886 27.9918 14.2826 27.9994C14.8603 28.007 15.438 27.9462 16.008 27.8626C16.8897 27.7335 17.7486 27.5283 18.5847 27.232C20.7053 26.4951 22.5372 25.3175 24.0953 23.6993C25.3267 22.423 26.2844 20.9644 26.9608 19.331C27.3637 18.3509 27.6525 17.3481 27.8273 16.3225C27.8273 16.3149 27.8273 16.3149 27.8273 16.3073C27.8273 16.2617 27.8425 16.2009 27.8501 16.1325ZM20.5229 24.1248C20.4849 24.14 20.4469 24.1628 20.4089 24.1856C20.0593 24.3983 19.702 24.6034 19.3372 24.7857C18.5543 25.1732 17.7562 25.4771 16.9353 25.6898C16.8973 25.6974 16.8669 25.705 16.8289 25.7202C16.8137 25.7278 16.7985 25.7278 16.7757 25.7354C15.97 25.9253 15.1415 26.0317 14.2902 26.0545C14.237 26.0545 14.1838 26.0545 14.123 26.0545C14.0698 26.0545 14.0242 26.0545 13.971 26.0545C13.933 26.0545 13.9026 26.0545 13.8646 26.0545C13.7658 26.0545 13.6746 26.0545 13.5758 26.0469C13.5302 26.0469 13.4845 26.0469 13.4313 26.0393C13.4009 26.0393 13.3629 26.0393 13.3325 26.0317C13.0741 26.0165 12.8233 25.9937 12.5648 25.9633C12.5268 25.9557 12.4812 25.9557 12.4432 25.9481C12.4052 25.9405 12.3596 25.9405 12.3216 25.9329C12.1924 25.9177 12.0708 25.8949 11.9416 25.8721C10.695 25.6594 9.5093 25.2568 8.39198 24.6566C6.27894 23.5246 4.62196 21.9216 3.45903 19.8324C2.50132 18.1154 2.01487 16.2617 1.94647 14.294C1.93126 13.7166 1.96167 13.1392 2.03007 12.5619C2.10608 11.9161 2.22769 11.2855 2.41012 10.6626C2.45572 10.5106 2.50133 10.3587 2.55453 10.2067C2.56973 10.1687 2.57734 10.1307 2.59254 10.0928C2.62294 10.0092 2.65334 9.91803 2.68374 9.83446C2.72175 9.73569 2.75975 9.63693 2.79776 9.53817V9.53057C3.41342 7.98074 4.33312 6.59805 5.54926 5.40529C6.57537 4.40246 7.75351 3.60475 9.06086 3.01217C10.4898 2.36641 11.9872 2.02454 13.553 1.96376C14.275 1.93337 14.9971 1.97895 15.7116 2.08531C16.5401 2.20687 17.3458 2.41199 18.1287 2.70069C18.9115 2.98938 19.6488 3.35405 20.3557 3.78709C20.4013 3.81748 20.4545 3.84027 20.5077 3.86306C21.2526 4.34168 21.9443 4.90387 22.5752 5.55723C23.1452 6.14222 23.6469 6.77279 24.0877 7.44134C24.1105 7.49452 24.1333 7.5401 24.1637 7.59328C24.3766 7.94275 24.5818 8.29982 24.7642 8.66449C25.3343 9.80407 25.7143 10.9816 25.8967 12.1972C25.8967 12.22 25.9043 12.2352 25.9043 12.258C25.9195 12.3415 25.9271 12.4327 25.9423 12.5163C25.9499 12.5543 25.9499 12.5922 25.9575 12.6378C25.9651 12.7214 25.9727 12.8126 25.9879 12.9037C25.9879 12.9265 25.9955 12.9569 25.9955 12.9797C26.0031 13.0937 26.0107 13.2152 26.0183 13.3292C26.0183 13.3368 26.0183 13.352 26.0183 13.3596C26.0411 13.7318 26.0411 14.1041 26.0259 14.4839C26.0183 14.6055 26.0107 14.7347 26.0031 14.8562C26.0031 14.8714 26.0031 14.879 26.0031 14.8942C25.9955 14.9778 25.9879 15.0537 25.9803 15.1373C25.9575 15.3348 25.9347 15.5324 25.9043 15.7299C25.7827 16.558 25.5775 17.3633 25.2887 18.1458C25.0758 18.7156 24.825 19.2626 24.5362 19.7868C24.5134 19.8324 24.483 19.878 24.4602 19.9235C24.445 19.9539 24.4298 19.9767 24.4146 20.0071C23.4569 21.7013 22.1571 23.0764 20.5229 24.1248Z" fill="#0E74AD"/>
<path d="M12.3896 13.1522C12.3896 13.0838 12.3896 13.0306 12.3896 12.9774C12.3896 10.2652 12.3896 7.56063 12.3896 4.84843C12.3896 4.48377 12.6328 4.15709 12.9749 4.05833C13.2485 3.98235 13.5297 4.09631 13.7197 4.35462C13.8566 4.54455 13.9098 4.76487 13.9098 4.99278C13.9098 5.55497 13.9098 6.12476 13.9098 6.68696C13.9098 9.12566 13.9098 11.5644 13.9098 13.9955C13.9098 14.5121 13.5677 14.8539 13.0585 14.8539C10.573 14.8539 8.08751 14.8539 5.60964 14.8539C5.20679 14.8539 4.84196 14.5425 4.79635 14.1626C4.74314 13.7144 5.02437 13.2585 5.41962 13.1674C5.49562 13.1522 5.57163 13.1446 5.64764 13.1446C7.84429 13.1446 10.0333 13.1446 12.23 13.1446C12.2756 13.1522 12.3212 13.1522 12.3896 13.1522Z" fill="#0E74AD"/>
<path d="M21.5257 13.1602C22.0958 13.1602 22.6506 13.1602 23.2207 13.1602C23.2207 13.7223 23.2207 14.2845 23.2207 14.8543C22.6582 14.8543 22.0958 14.8543 21.5257 14.8543C21.5257 14.2921 21.5257 13.7299 21.5257 13.1602Z" fill="#0E74AD"/>
<path d="M12.2072 22.2754C12.7773 22.2754 13.3322 22.2754 13.9022 22.2754C13.9022 22.8376 13.9022 23.3998 13.9022 23.9696C13.3398 23.9696 12.7773 23.9696 12.2072 23.9696C12.2072 23.4074 12.2072 22.8528 12.2072 22.2754Z" fill="#0E74AD"/>
<path d="M20.568 7.64608C20.1195 8.02594 19.6863 8.39821 19.2682 8.76287C18.8882 8.38301 18.5157 8.01075 18.1509 7.64608C18.5005 7.29661 18.8806 6.91675 19.2682 6.5293C19.6787 6.88637 20.1119 7.25863 20.568 7.64608Z" fill="#0E74AD"/>
<path d="M20.3774 19.609C19.9289 19.9964 19.4957 20.3687 19.07 20.7258C18.69 20.3459 18.3099 19.9736 17.9451 19.609C18.3023 19.2519 18.6824 18.872 19.0624 18.4922C19.4881 18.8493 19.9213 19.2215 20.3774 19.609Z" fill="#0E74AD"/>
<path d="M6.71273 6.53516C7.06997 6.89222 7.44241 7.26449 7.79965 7.62156C7.42721 7.99382 7.05476 8.36608 6.68992 8.73075C6.33268 8.37368 5.96024 8.00142 5.603 7.64435C5.96024 7.29488 6.33268 6.91502 6.71273 6.53516Z" fill="#0E74AD"/>
<path d="M5.40584 19.6016C5.76308 19.2445 6.13551 18.8723 6.50035 18.5C6.86519 18.8647 7.23763 19.2445 7.60247 19.6168C7.24524 19.9739 6.8728 20.3461 6.50796 20.7108C6.14312 20.3461 5.77068 19.9739 5.40584 19.6016Z" fill="#0E74AD"/>
</svg>
