<svg width="25" height="18" viewBox="0 0 25 18" fill="none" xmlns="http://www.w3.org/2000/svg">
<path fill-rule="evenodd" clip-rule="evenodd" d="M24.2703 2.23463H14.2025V0.507342C14.2025 0.372786 14.1516 0.243742 14.0609 0.148597C13.9703 0.0534519 13.8473 0 13.7191 0L11.0343 0C10.9061 0 10.7832 0.0534519 10.6925 0.148597C10.6019 0.243742 10.5509 0.372786 10.5509 0.507342V2.23463H0.483092C0.355114 2.23497 0.232489 2.28857 0.14211 2.38368C0.051731 2.47879 0.000976148 2.60764 0.000976563 2.74197L0.000976563 11.8987C0.000976563 12.0332 0.0519003 12.1623 0.142545 12.2574C0.23319 12.3525 0.356131 12.406 0.484322 12.406C0.612513 12.406 0.735454 12.3525 0.826099 12.2574C0.916744 12.1623 0.967668 12.0332 0.967668 11.8987V3.24931H10.5509V4.97789C10.5509 5.11244 10.6019 5.24149 10.6925 5.33663C10.7832 5.43178 10.9061 5.48523 11.0343 5.48523H13.7204C13.8486 5.48523 13.9715 5.43178 14.0621 5.33663C14.1528 5.24149 14.2037 5.11244 14.2037 4.97789V3.2506H23.787V4.26012C23.787 4.39468 23.8379 4.52372 23.9286 4.61887C24.0192 4.71401 24.1421 4.76746 24.2703 4.76746C24.3985 4.76746 24.5215 4.71401 24.6121 4.61887C24.7028 4.52372 24.7537 4.39468 24.7537 4.26012V2.74197C24.7537 2.60741 24.7028 2.47837 24.6121 2.38322C24.5215 2.28808 24.3985 2.23463 24.2703 2.23463ZM13.2358 4.47055H11.5139V1.01468H13.2358V4.47055Z" fill="#1E283C"/>
<path fill-rule="evenodd" clip-rule="evenodd" d="M24.2694 7.81641C24.1412 7.81641 24.0182 7.86986 23.9276 7.96501C23.8369 8.06016 23.786 8.1892 23.786 8.32376V16.9731H0.966691V15.9584C0.966691 15.8239 0.915767 15.6948 0.825123 15.5997C0.734478 15.5045 0.611537 15.4511 0.483346 15.4511C0.355154 15.4511 0.232214 15.5045 0.141569 15.5997C0.0509238 15.6948 0 15.8239 0 15.9584L0 17.4804C0 17.615 0.0509238 17.744 0.141569 17.8392C0.232214 17.9343 0.355154 17.9878 0.483346 17.9878H24.2694C24.3976 17.9878 24.5205 17.9343 24.6111 17.8392C24.7018 17.744 24.7527 17.615 24.7527 17.4804V8.32376C24.7527 8.1892 24.7018 8.06016 24.6111 7.96501C24.5205 7.86986 24.3976 7.81641 24.2694 7.81641Z" fill="#1E283C"/>
<path fill-rule="evenodd" clip-rule="evenodd" d="M2.25202 14.3911C2.25202 14.5257 2.30295 14.6547 2.39359 14.7499C2.48424 14.845 2.60718 14.8985 2.73537 14.8985H11.2745C11.4027 14.8985 11.5256 14.845 11.6163 14.7499C11.7069 14.6547 11.7578 14.5257 11.7578 14.3911C11.7578 14.3799 11.7578 14.3688 11.7578 14.3576C11.7566 13.3278 11.4593 12.3224 10.9047 11.473C10.3502 10.6235 9.56433 9.96951 8.6499 9.59655C8.98917 9.25251 9.22279 8.80994 9.32079 8.3256C9.4188 7.84125 9.37673 7.33722 9.19997 6.87814C9.02321 6.41906 8.71983 6.02587 8.32873 5.749C7.93763 5.47214 7.47665 5.32422 7.00492 5.32422C6.53319 5.32422 6.07221 5.47214 5.68111 5.749C5.29002 6.02587 4.98663 6.41906 4.80987 6.87814C4.63312 7.33722 4.59104 7.84125 4.68905 8.3256C4.78706 8.80994 5.02068 9.25251 5.35995 9.59655C4.44042 9.97157 3.651 10.6307 3.09606 11.4868C2.54112 12.3429 2.2468 13.3557 2.25202 14.3911ZM7.00431 6.3395C7.28137 6.3395 7.55221 6.42573 7.78257 6.5873C8.01294 6.74887 8.19249 6.97851 8.29852 7.24718C8.40454 7.51586 8.43228 7.81151 8.37823 8.09674C8.32418 8.38197 8.19076 8.64396 7.99485 8.8496C7.79894 9.05524 7.54933 9.19528 7.2776 9.25202C7.00586 9.30875 6.7242 9.27963 6.46823 9.16834C6.21226 9.05705 5.99348 8.86859 5.83955 8.62678C5.68562 8.38498 5.60347 8.1007 5.60347 7.80989C5.60379 7.42002 5.75148 7.04621 6.01412 6.77054C6.27676 6.49486 6.63288 6.33984 7.00431 6.3395ZM7.00431 10.295C7.93975 10.3091 8.838 10.6817 9.52983 11.3428C10.2217 12.0038 10.6593 12.9075 10.7604 13.8838H3.247C3.34805 12.9075 3.78572 12.0038 4.47756 11.3428C5.16939 10.6817 6.06763 10.3091 7.00308 10.295H7.00431Z" fill="#1E283C"/>
<path fill-rule="evenodd" clip-rule="evenodd" d="M14.9023 13.5088H21.7626C21.8908 13.5088 22.0137 13.4554 22.1044 13.3602C22.195 13.2651 22.2459 13.136 22.2459 13.0015C22.2459 12.8669 22.195 12.7379 22.1044 12.6427C22.0137 12.5476 21.8908 12.4941 21.7626 12.4941H14.9023C14.7741 12.4941 14.6512 12.5476 14.5605 12.6427C14.4699 12.7379 14.4189 12.8669 14.4189 13.0015C14.4189 13.136 14.4699 13.2651 14.5605 13.3602C14.6512 13.4554 14.7741 13.5088 14.9023 13.5088Z" fill="#1E283C"/>
<path fill-rule="evenodd" clip-rule="evenodd" d="M14.9023 7.72952H21.7626C21.8908 7.72952 22.0137 7.67606 22.1044 7.58092C22.195 7.48577 22.2459 7.35673 22.2459 7.22217C22.2459 7.08762 22.195 6.95857 22.1044 6.86343C22.0137 6.76828 21.8908 6.71484 21.7626 6.71484H14.9023C14.7741 6.71484 14.6512 6.76828 14.5605 6.86343C14.4699 6.95857 14.4189 7.08762 14.4189 7.22217C14.4189 7.35673 14.4699 7.48577 14.5605 7.58092C14.6512 7.67606 14.7741 7.72952 14.9023 7.72952Z" fill="#1E283C"/>
<path fill-rule="evenodd" clip-rule="evenodd" d="M14.9023 10.6202H21.7626C21.8908 10.6202 22.0137 10.5667 22.1044 10.4716C22.195 10.3764 22.2459 10.2474 22.2459 10.1128C22.2459 9.97826 22.195 9.84922 22.1044 9.75407C22.0137 9.65893 21.8908 9.60547 21.7626 9.60547H14.9023C14.7741 9.60547 14.6512 9.65893 14.5605 9.75407C14.4699 9.84922 14.4189 9.97826 14.4189 10.1128C14.4189 10.2474 14.4699 10.3764 14.5605 10.4716C14.6512 10.5667 14.7741 10.6202 14.9023 10.6202Z" fill="#1E283C"/>
<path fill-rule="evenodd" clip-rule="evenodd" d="M0.483346 14.4365C0.578942 14.4365 0.672392 14.4068 0.751878 14.3511C0.831364 14.2953 0.893315 14.2161 0.929899 14.1234C0.966482 14.0307 0.976054 13.9287 0.957404 13.8302C0.938754 13.7318 0.89272 13.6414 0.825123 13.5705C0.757525 13.4995 0.671402 13.4512 0.577642 13.4316C0.483882 13.412 0.386697 13.4221 0.298377 13.4605C0.210057 13.4989 0.134569 13.5639 0.0814584 13.6474C0.0283477 13.7308 0 13.8289 0 13.9292C0.000324695 14.0637 0.0513527 14.1925 0.141927 14.2876C0.232502 14.3827 0.355254 14.4362 0.483346 14.4365Z" fill="#1E283C"/>
<path fill-rule="evenodd" clip-rule="evenodd" d="M24.2695 5.78711C24.1739 5.78711 24.0804 5.81686 24.001 5.87261C23.9215 5.92836 23.8595 6.0076 23.8229 6.1003C23.7863 6.19301 23.7768 6.29502 23.7954 6.39343C23.8141 6.49185 23.8601 6.58224 23.9277 6.65319C23.9953 6.72415 24.0814 6.77247 24.1752 6.79205C24.2689 6.81162 24.3661 6.80158 24.4545 6.76318C24.5428 6.72478 24.6183 6.65975 24.6714 6.57632C24.7245 6.49289 24.7529 6.39479 24.7529 6.29445C24.7525 6.16 24.7015 6.03116 24.6109 5.93609C24.5203 5.84102 24.3976 5.78745 24.2695 5.78711Z" fill="#1E283C"/>
</svg>
