<svg width="31" height="25" viewBox="0 0 31 25" fill="none" xmlns="http://www.w3.org/2000/svg">
<path d="M5.1155 22.3477C5.23739 22.3477 5.35429 22.3069 5.44048 22.2343C5.52667 22.1617 5.57509 22.0632 5.57509 21.9605V20.7418L6.82671 21.3511C6.87803 21.3867 6.9379 21.4125 7.00219 21.4267C7.06647 21.4409 7.13365 21.4432 7.19908 21.4334C7.26452 21.4236 7.32666 21.402 7.38121 21.37C7.43577 21.338 7.48145 21.2964 7.51509 21.2481C7.54874 21.1998 7.56956 21.146 7.57611 21.0903C7.58266 21.0345 7.57479 20.9783 7.55304 20.9254C7.5313 20.8724 7.49619 20.8241 7.45014 20.7837C7.40409 20.7433 7.3482 20.7119 7.28631 20.6915L6.03468 20.0821L7.28631 19.4728C7.3482 19.4524 7.40409 19.4209 7.45014 19.3805C7.49619 19.3401 7.5313 19.2918 7.55304 19.2389C7.57479 19.186 7.58266 19.1297 7.57611 19.074C7.56956 19.0183 7.54874 18.9644 7.51509 18.9161C7.48145 18.8678 7.43577 18.8262 7.38121 18.7942C7.32666 18.7623 7.26452 18.7406 7.19908 18.7309C7.13365 18.7211 7.06647 18.7233 7.00219 18.7375C6.9379 18.7518 6.87803 18.7775 6.82671 18.8131L5.57509 19.4225V18.2038C5.58735 18.1479 5.58487 18.0904 5.56782 18.0355C5.55078 17.9805 5.51958 17.9294 5.47645 17.8857C5.43332 17.842 5.37931 17.8069 5.31825 17.7827C5.2572 17.7586 5.19059 17.7461 5.12316 17.7461C5.05572 17.7461 4.98912 17.7586 4.92807 17.7827C4.86701 17.8069 4.813 17.842 4.76987 17.8857C4.72674 17.9294 4.69554 17.9805 4.6785 18.0355C4.66145 18.0904 4.65897 18.1479 4.67123 18.2038V19.4225L3.4196 18.8131C3.31775 18.7795 3.20501 18.7776 3.10165 18.8078C2.99829 18.838 2.91109 18.8982 2.85571 18.9777C2.80033 19.0572 2.78041 19.1507 2.79953 19.2414C2.81865 19.3322 2.87555 19.4142 2.96001 19.4728L4.21163 20.0821L2.96001 20.6915C2.89812 20.7119 2.84223 20.7433 2.79618 20.7837C2.75013 20.8241 2.71502 20.8724 2.69327 20.9254C2.67152 20.9783 2.66366 21.0345 2.67021 21.0903C2.67676 21.146 2.69757 21.1998 2.73122 21.2481C2.76487 21.2964 2.81054 21.338 2.8651 21.37C2.91966 21.402 2.9818 21.4236 3.04724 21.4334C3.11267 21.4432 3.17985 21.4409 3.24413 21.4267C3.30842 21.4125 3.36828 21.3867 3.4196 21.3511L4.67123 20.7418V21.9605C4.67116 22.061 4.71747 22.1575 4.80037 22.2298C4.88328 22.3021 4.99628 22.3444 5.1155 22.3477Z" fill="#1E283C"/>
<path d="M16.6284 21.2175C16.6897 21.3027 16.7875 21.3648 16.9016 21.3907C17.0157 21.4167 17.1374 21.4046 17.2412 21.357L18.4943 20.7476V21.9663C18.4821 22.0222 18.4846 22.0796 18.5016 22.1346C18.5187 22.1896 18.5498 22.2407 18.593 22.2844C18.6361 22.3281 18.6901 22.3632 18.7512 22.3874C18.8122 22.4115 18.8789 22.424 18.9463 22.424C19.0137 22.424 19.0803 22.4115 19.1414 22.3874C19.2024 22.3632 19.2564 22.3281 19.2995 22.2844C19.3427 22.2407 19.3739 22.1896 19.3909 22.1346C19.408 22.0796 19.4105 22.0222 19.3982 21.9663V20.7476L20.6498 21.357C20.7517 21.3906 20.8644 21.3925 20.9678 21.3623C21.0711 21.3321 21.1583 21.2719 21.2137 21.1924C21.2691 21.1129 21.289 21.0194 21.2699 20.9287C21.2508 20.8379 21.1939 20.7559 21.1094 20.6973L19.8578 20.088L21.1094 19.4787C21.1939 19.4201 21.2508 19.338 21.2699 19.2473C21.289 19.1565 21.2691 19.063 21.2137 18.9835C21.1583 18.904 21.0711 18.8438 20.9678 18.8137C20.8644 18.7835 20.7517 18.7854 20.6498 18.819L19.3982 19.4283V18.2097C19.4105 18.1538 19.408 18.0963 19.3909 18.0413C19.3739 17.9863 19.3427 17.9352 19.2995 17.8915C19.2564 17.8479 19.2024 17.8127 19.1414 17.7886C19.0803 17.7645 19.0137 17.752 18.9463 17.752C18.8789 17.752 18.8122 17.7645 18.7512 17.7886C18.6901 17.8127 18.6361 17.8479 18.593 17.8915C18.5498 17.9352 18.5187 17.9863 18.5016 18.0413C18.4846 18.0963 18.4821 18.1538 18.4943 18.2097V19.4283L17.2412 18.819C17.1393 18.7854 17.0266 18.7835 16.9232 18.8137C16.8199 18.8438 16.7327 18.904 16.6773 18.9835C16.6219 19.063 16.602 19.1565 16.6211 19.2473C16.6402 19.338 16.6972 19.4201 16.7816 19.4787L18.0348 20.088L16.7816 20.6973C16.6814 20.7507 16.6095 20.8345 16.5809 20.9315C16.5524 21.0284 16.5694 21.1309 16.6284 21.2175Z" fill="#1E283C"/>
<path d="M9.71111 21.2175C9.77238 21.3027 9.87024 21.3648 9.98436 21.3907C10.0985 21.4167 10.2201 21.4046 10.3239 21.357L11.5755 20.7477V21.9663C11.5633 22.0222 11.5657 22.0796 11.5828 22.1346C11.5998 22.1896 11.631 22.2408 11.6742 22.2844C11.7173 22.3281 11.7713 22.3633 11.8324 22.3874C11.8934 22.4115 11.96 22.424 12.0275 22.424C12.0949 22.424 12.1615 22.4115 12.2225 22.3874C12.2836 22.3633 12.3376 22.3281 12.3808 22.2844C12.4239 22.2408 12.4551 22.1896 12.4721 22.1346C12.4892 22.0796 12.4916 22.0222 12.4794 21.9663V20.7477L13.731 21.357C13.8329 21.3906 13.9456 21.3925 14.049 21.3623C14.1523 21.3322 14.2395 21.2719 14.2949 21.1924C14.3503 21.1129 14.3702 21.0194 14.3511 20.9287C14.332 20.8379 14.2751 20.7559 14.1906 20.6973L12.939 20.088L14.1906 19.4787C14.2525 19.4582 14.3084 19.4267 14.3544 19.3864C14.4005 19.346 14.4356 19.2977 14.4574 19.2448C14.4791 19.1918 14.487 19.1356 14.4804 19.0799C14.4739 19.0241 14.453 18.9702 14.4194 18.922C14.3857 18.8737 14.3401 18.8321 14.2855 18.8001C14.231 18.7681 14.1688 18.7465 14.1034 18.7367C14.038 18.7269 13.9708 18.7292 13.9065 18.7434C13.8422 18.7576 13.7823 18.7834 13.731 18.819L12.4794 19.4283V18.2097C12.4916 18.1538 12.4892 18.0963 12.4721 18.0413C12.4551 17.9863 12.4239 17.9352 12.3808 17.8915C12.3376 17.8479 12.2836 17.8127 12.2225 17.7886C12.1615 17.7645 12.0949 17.752 12.0275 17.752C11.96 17.752 11.8934 17.7645 11.8324 17.7886C11.7713 17.8127 11.7173 17.8479 11.6742 17.8915C11.631 17.9352 11.5998 17.9863 11.5828 18.0413C11.5657 18.0963 11.5633 18.1538 11.5755 18.2097V19.4283L10.3239 18.819C10.2726 18.7834 10.2127 18.7576 10.1484 18.7434C10.0841 18.7292 10.017 18.7269 9.95154 18.7367C9.8861 18.7465 9.82397 18.7681 9.76941 18.8001C9.71486 18.8321 9.66916 18.8737 9.63552 18.922C9.60187 18.9702 9.58106 19.0241 9.5745 19.0799C9.56795 19.1356 9.57583 19.1918 9.59758 19.2448C9.61932 19.2977 9.65443 19.346 9.70048 19.3864C9.74653 19.4267 9.80244 19.4582 9.86432 19.4787L11.1159 20.088L9.86432 20.6973C9.7641 20.7507 9.69218 20.8345 9.66364 20.9315C9.63509 21.0284 9.6521 21.1309 9.71111 21.2175Z" fill="#1E283C"/>
<path d="M23.5454 21.2175C23.6067 21.3027 23.7045 21.3648 23.8186 21.3907C23.9327 21.4167 24.0544 21.4046 24.1582 21.357L25.4098 20.7477V21.9663C25.3975 22.0222 25.4 22.0796 25.4171 22.1346C25.4341 22.1896 25.4653 22.2408 25.5084 22.2844C25.5516 22.3281 25.6056 22.3633 25.6666 22.3874C25.7277 22.4115 25.7943 22.424 25.8617 22.424C25.9292 22.424 25.9958 22.4115 26.0568 22.3874C26.1179 22.3633 26.1719 22.3281 26.215 22.2844C26.2582 22.2408 26.2893 22.1896 26.3064 22.1346C26.3234 22.0796 26.3259 22.0222 26.3137 21.9663V20.7477L27.5668 21.357C27.6687 21.3906 27.7814 21.3925 27.8848 21.3623C27.9882 21.3322 28.0753 21.2719 28.1307 21.1924C28.1861 21.1129 28.206 21.0194 28.1869 20.9287C28.1678 20.8379 28.1109 20.7559 28.0264 20.6973L26.7733 20.088L28.0264 19.4787C28.1109 19.4201 28.1678 19.338 28.1869 19.2473C28.206 19.1565 28.1861 19.063 28.1307 18.9835C28.0753 18.904 27.9882 18.8438 27.8848 18.8137C27.7814 18.7835 27.6687 18.7854 27.5668 18.819L26.3137 19.4283V18.2097C26.3259 18.1538 26.3234 18.0963 26.3064 18.0413C26.2893 17.9863 26.2582 17.9352 26.215 17.8915C26.1719 17.8479 26.1179 17.8127 26.0568 17.7886C25.9958 17.7645 25.9292 17.752 25.8617 17.752C25.7943 17.752 25.7277 17.7645 25.6666 17.7886C25.6056 17.8127 25.5516 17.8479 25.5084 17.8915C25.4653 17.9352 25.4341 17.9863 25.4171 18.0413C25.4 18.0963 25.3975 18.1538 25.4098 18.2097V19.4283L24.1582 18.819C24.0563 18.7854 23.9436 18.7835 23.8402 18.8137C23.7369 18.8438 23.6497 18.904 23.5943 18.9835C23.5389 19.063 23.519 19.1565 23.5381 19.2473C23.5572 19.338 23.6141 19.4201 23.6986 19.4787L24.9518 20.088L23.6986 20.6973C23.5984 20.7507 23.5264 20.8345 23.4979 20.9315C23.4693 21.0284 23.4864 21.1309 23.5454 21.2175Z" fill="#1E283C"/>
<path d="M28.9974 15.556H23.5987V11.9091C23.5792 11.8201 23.5233 11.7397 23.4407 11.6818C23.3582 11.6239 23.2542 11.5922 23.1468 11.5922C23.0394 11.5922 22.9354 11.6239 22.8528 11.6818C22.7702 11.7397 22.7144 11.8201 22.6948 11.9091V15.556H17.5397L17.2992 13.7487C17.5007 13.4763 17.6121 13.1633 17.6218 12.8424C17.6314 12.5214 17.539 12.2042 17.3541 11.9234C17.1692 11.6427 16.8986 11.4088 16.5703 11.246C16.2419 11.0831 15.8679 10.9972 15.4869 10.9972C15.1059 10.9972 14.7318 11.0831 14.4035 11.246C14.0752 11.4088 13.8045 11.6427 13.6196 11.9234C13.4347 12.2042 13.3423 12.5214 13.352 12.8424C13.3616 13.1633 13.473 13.4763 13.6746 13.7487L13.434 15.556H8.28965V9.22394C8.29006 9.11106 8.34345 9.0029 8.43817 8.92308C8.5329 8.84326 8.66125 8.79827 8.79521 8.79793H22.1877C22.3217 8.79827 22.4501 8.84326 22.5448 8.92308C22.6395 9.0029 22.6929 9.11106 22.6933 9.22394V10.1276C22.7128 10.2166 22.7687 10.297 22.8513 10.3549C22.9338 10.4128 23.0378 10.4445 23.1452 10.4445C23.2526 10.4445 23.3566 10.4128 23.4392 10.3549C23.5217 10.297 23.5776 10.2166 23.5972 10.1276V9.22394C23.5968 8.90872 23.448 8.6065 23.1835 8.3836C22.9189 8.1607 22.5603 8.03533 22.1862 8.03498H22.1157V5.79519C22.1291 5.05492 21.9676 4.3198 21.6407 3.63261C21.3137 2.94542 20.8279 2.31988 20.2113 1.79241C19.5948 1.26493 18.86 0.84604 18.0495 0.560118C17.2391 0.274197 16.3693 0.126953 15.4907 0.126953C14.6121 0.126953 13.7423 0.274197 12.9319 0.560118C12.1214 0.84604 11.3866 1.26493 10.7701 1.79241C10.1536 2.31988 9.6677 2.94542 9.34075 3.63261C9.01381 4.3198 8.85232 5.05492 8.86568 5.79519V8.03498H8.79521C8.42112 8.03533 8.06248 8.1607 7.79796 8.3836C7.53344 8.6065 7.38466 8.90872 7.38426 9.22394V15.556H1.9871C1.48016 15.5564 0.994092 15.7262 0.635628 16.0283C0.277164 16.3304 0.075601 16.7399 0.0751953 17.1671L0.0751953 22.5788C0.0772203 23.0051 0.279498 23.4133 0.637787 23.7143C0.996076 24.0152 1.48122 24.1844 1.9871 24.1847H5.1154C5.18171 24.1951 5.2499 24.193 5.31515 24.1786C5.38039 24.1642 5.44108 24.1379 5.49292 24.1016C5.54475 24.0653 5.58646 24.0197 5.61509 23.9683C5.64371 23.9168 5.65855 23.8607 5.65855 23.8039C5.65855 23.7471 5.64371 23.6909 5.61509 23.6395C5.58646 23.588 5.54475 23.5425 5.49292 23.5062C5.44108 23.4698 5.38039 23.4436 5.31515 23.4292C5.2499 23.4148 5.18171 23.4127 5.1154 23.4231H1.9871C1.71975 23.4231 1.46335 23.3336 1.27431 23.1743C1.08527 23.015 0.979061 22.7989 0.979061 22.5736V17.1671C0.979061 16.9418 1.08527 16.7258 1.27431 16.5665C1.46335 16.4072 1.71975 16.3177 1.9871 16.3177H28.9974C29.2647 16.3177 29.5211 16.4072 29.7102 16.5665C29.8992 16.7258 30.0054 16.9418 30.0054 17.1671V22.5788C30.0054 22.8041 29.8992 23.0201 29.7102 23.1794C29.5211 23.3387 29.2647 23.4282 28.9974 23.4282H7.22646C7.16015 23.4179 7.09196 23.42 7.02672 23.4344C6.96147 23.4487 6.90078 23.475 6.84894 23.5113C6.79711 23.5477 6.7554 23.5932 6.72677 23.6447C6.69815 23.6961 6.68331 23.7522 6.68331 23.8091C6.68331 23.8659 6.69815 23.922 6.72677 23.9735C6.7554 24.0249 6.79711 24.0704 6.84894 24.1068C6.90078 24.1431 6.96147 24.1694 7.02672 24.1838C7.09196 24.1981 7.16015 24.2002 7.22646 24.1899H28.9974C29.5043 24.1895 29.9904 24.0197 30.3489 23.7176C30.7073 23.4156 30.9089 23.006 30.9093 22.5788V17.1671C30.9089 16.7399 30.7073 16.3304 30.3489 16.0283C29.9904 15.7262 29.5043 15.5564 28.9974 15.556ZM18.249 8.03498H12.7339V5.79519C12.7339 5.17891 13.0244 4.58786 13.5416 4.15208C14.0587 3.71631 14.7601 3.47149 15.4915 3.47149C16.2228 3.47149 16.9242 3.71631 17.4414 4.15208C17.9585 4.58786 18.249 5.17891 18.249 5.79519V8.03498ZM9.77108 5.79519C9.77108 5.16217 9.91904 4.53534 10.2065 3.95051C10.494 3.36567 10.9154 2.83427 11.4465 2.38666C11.9777 1.93904 12.6083 1.58398 13.3024 1.34173C13.9964 1.09948 14.7403 0.974796 15.4915 0.974796C16.2427 0.974796 16.9865 1.09948 17.6806 1.34173C18.3746 1.58398 19.0052 1.93904 19.5364 2.38666C20.0676 2.83427 20.489 3.36567 20.7764 3.95051C21.0639 4.53534 21.2119 5.16217 21.2119 5.79519V8.03498H19.1544V5.79519C19.1348 4.98766 18.7404 4.21878 18.0557 3.65352C17.3711 3.08826 16.4507 2.77166 15.4922 2.77166C14.5337 2.77166 13.6134 3.08826 12.9288 3.65352C12.2441 4.21878 11.8497 4.98766 11.8301 5.79519V8.03498H9.77108V5.79519ZM14.4559 13.364C14.3139 13.1785 14.2463 12.9595 14.2628 12.7392C14.2838 12.4876 14.4116 12.2509 14.623 12.0723C14.8343 11.8938 15.1149 11.7854 15.4133 11.7671C15.6414 11.7527 15.8698 11.7924 16.0725 11.8817C16.2752 11.971 16.4443 12.1063 16.5605 12.2723C16.6767 12.4383 16.7354 12.6285 16.7301 12.8212C16.7247 13.0139 16.6555 13.2015 16.5302 13.3627C16.4279 13.4962 16.383 13.6552 16.403 13.8133L16.6359 15.556H14.3486L14.5815 13.8107C14.6013 13.6535 14.5564 13.4953 14.4543 13.3627L14.4559 13.364Z" fill="#1E283C"/>
</svg>
